<mxfile host="app.diagrams.net" agent="Mozilla/5.0 (Windows NT 10.0; Win64; x64) AppleWebKit/537.36 (KHTML, like Gecko) Chrome/138.0.0.0 Safari/537.36" version="28.0.4">
  <diagram name="PÃ¡gina-1" id="xbqRUiNpfSA_iSAeOtyG">
    <mxGraphModel dx="1577" dy="1811" grid="1" gridSize="10" guides="1" tooltips="1" connect="1" arrows="1" fold="1" page="1" pageScale="1" pageWidth="827" pageHeight="1169" math="0" shadow="0">
      <root>
        <mxCell id="0" />
        <mxCell id="1" parent="0" />
        <mxCell id="VMLcQ7x3kWmT9pxBNX9J-1" value="Actor" style="shape=umlActor;verticalLabelPosition=bottom;verticalAlign=top;html=1;outlineConnect=0;" vertex="1" parent="1">
          <mxGeometry x="70" y="30" width="30" height="60" as="geometry" />
        </mxCell>
        <mxCell id="VMLcQ7x3kWmT9pxBNX9J-2" value="&lt;span style=&quot;color: rgb(56, 58, 66); font-family: jetbrains, &amp;quot;jetbrains Fallback&amp;quot;, Menlo, Monaco, monospace, monospace; font-size: 14px; text-align: left; white-space: pre; background-color: rgb(255, 255, 255);&quot;&gt;Interfaz&lt;/span&gt;" style="rounded=1;whiteSpace=wrap;html=1;" vertex="1" parent="1">
          <mxGeometry x="354" y="20" width="120" height="60" as="geometry" />
        </mxCell>
        <mxCell id="VMLcQ7x3kWmT9pxBNX9J-4" value="" style="endArrow=none;html=1;rounded=0;exitX=1;exitY=0.3333333333333333;exitDx=0;exitDy=0;exitPerimeter=0;entryX=0;entryY=0.5;entryDx=0;entryDy=0;" edge="1" parent="1" source="VMLcQ7x3kWmT9pxBNX9J-1" target="VMLcQ7x3kWmT9pxBNX9J-2">
          <mxGeometry width="50" height="50" relative="1" as="geometry">
            <mxPoint x="190" y="85" as="sourcePoint" />
            <mxPoint x="240" y="35" as="targetPoint" />
          </mxGeometry>
        </mxCell>
        <mxCell id="VMLcQ7x3kWmT9pxBNX9J-5" value="&lt;span style=&quot;color: rgb(56, 58, 66); font-family: jetbrains, &amp;quot;jetbrains Fallback&amp;quot;, Menlo, Monaco, monospace, monospace; font-size: 14px; text-align: left; white-space: pre; background-color: rgb(255, 255, 255);&quot;&gt;Base de Datos&lt;/span&gt;" style="rounded=1;whiteSpace=wrap;html=1;" vertex="1" parent="1">
          <mxGeometry x="1050" y="240" width="120" height="60" as="geometry" />
        </mxCell>
        <mxCell id="VMLcQ7x3kWmT9pxBNX9J-6" value="&lt;span style=&quot;color: rgb(56, 58, 66); font-family: jetbrains, &amp;quot;jetbrains Fallback&amp;quot;, Menlo, Monaco, monospace, monospace; font-size: 14px; text-align: left; white-space: pre; background-color: rgb(255, 255, 255);&quot;&gt;Controlador&lt;/span&gt;" style="rounded=1;whiteSpace=wrap;html=1;" vertex="1" parent="1">
          <mxGeometry x="700" y="20" width="120" height="60" as="geometry" />
        </mxCell>
        <mxCell id="VMLcQ7x3kWmT9pxBNX9J-7" value="&#xa;&lt;span style=&quot;color: rgb(56, 58, 66); font-family: jetbrains, &amp;quot;jetbrains Fallback&amp;quot;, Menlo, Monaco, monospace, monospace; font-size: 14px; font-style: normal; font-variant-ligatures: normal; font-variant-caps: normal; font-weight: 400; letter-spacing: normal; orphans: 2; text-align: left; text-indent: 0px; text-transform: none; widows: 2; word-spacing: 0px; -webkit-text-stroke-width: 0px; white-space: pre; background-color: rgb(255, 255, 255); text-decoration-thickness: initial; text-decoration-style: initial; text-decoration-color: initial; display: inline !important; float: none;&quot;&gt;ValidadorSesion&lt;/span&gt;&#xa;&#xa;" style="rounded=1;whiteSpace=wrap;html=1;" vertex="1" parent="1">
          <mxGeometry x="1020" y="20" width="120" height="60" as="geometry" />
        </mxCell>
        <mxCell id="VMLcQ7x3kWmT9pxBNX9J-8" value="&#xa;&lt;span style=&quot;color: rgb(56, 58, 66); font-family: jetbrains, &amp;quot;jetbrains Fallback&amp;quot;, Menlo, Monaco, monospace, monospace; font-size: 14px; font-style: normal; font-variant-ligatures: normal; font-variant-caps: normal; font-weight: 400; letter-spacing: normal; orphans: 2; text-align: left; text-indent: 0px; text-transform: none; widows: 2; word-spacing: 0px; -webkit-text-stroke-width: 0px; white-space: pre; background-color: rgb(255, 255, 255); text-decoration-thickness: initial; text-decoration-style: initial; text-decoration-color: initial; display: inline !important; float: none;&quot;&gt; GestorPerfil&lt;/span&gt;&#xa;&#xa;" style="rounded=1;whiteSpace=wrap;html=1;" vertex="1" parent="1">
          <mxGeometry x="700" y="240" width="120" height="60" as="geometry" />
        </mxCell>
        <mxCell id="VMLcQ7x3kWmT9pxBNX9J-11" value="" style="endArrow=classic;html=1;rounded=0;" edge="1" parent="1">
          <mxGeometry width="50" height="50" relative="1" as="geometry">
            <mxPoint x="140" y="40" as="sourcePoint" />
            <mxPoint x="310" y="40" as="targetPoint" />
          </mxGeometry>
        </mxCell>
        <mxCell id="VMLcQ7x3kWmT9pxBNX9J-12" value="&lt;span style=&quot;color: rgb(56, 58, 66); font-family: jetbrains, &amp;quot;jetbrains Fallback&amp;quot;, Menlo, Monaco, monospace, monospace; font-size: 14px; text-align: left; white-space: pre; background-color: rgb(255, 255, 255);&quot;&gt;1:Acceder perfil usuario&lt;/span&gt;" style="text;html=1;align=center;verticalAlign=middle;whiteSpace=wrap;rounded=0;" vertex="1" parent="1">
          <mxGeometry x="190" y="10" width="60" height="30" as="geometry" />
        </mxCell>
        <mxCell id="VMLcQ7x3kWmT9pxBNX9J-13" value="" style="endArrow=none;html=1;rounded=0;exitX=1;exitY=0.5;exitDx=0;exitDy=0;entryX=0;entryY=0.5;entryDx=0;entryDy=0;" edge="1" parent="1" source="VMLcQ7x3kWmT9pxBNX9J-2" target="VMLcQ7x3kWmT9pxBNX9J-6">
          <mxGeometry width="50" height="50" relative="1" as="geometry">
            <mxPoint x="550" y="150" as="sourcePoint" />
            <mxPoint x="804" y="150" as="targetPoint" />
          </mxGeometry>
        </mxCell>
        <mxCell id="VMLcQ7x3kWmT9pxBNX9J-14" value="" style="endArrow=classic;html=1;rounded=0;" edge="1" parent="1">
          <mxGeometry width="50" height="50" relative="1" as="geometry">
            <mxPoint x="510" y="40" as="sourcePoint" />
            <mxPoint x="680" y="40" as="targetPoint" />
          </mxGeometry>
        </mxCell>
        <mxCell id="VMLcQ7x3kWmT9pxBNX9J-15" value="&lt;span style=&quot;color: rgb(56, 58, 66); font-family: jetbrains, &amp;quot;jetbrains Fallback&amp;quot;, Menlo, Monaco, monospace, monospace; font-size: 14px; text-align: left; white-space: pre; background-color: rgb(255, 255, 255);&quot;&gt; 2:visualizarPerfil&lt;/span&gt;" style="text;html=1;align=center;verticalAlign=middle;whiteSpace=wrap;rounded=0;" vertex="1" parent="1">
          <mxGeometry x="560" y="10" width="60" height="30" as="geometry" />
        </mxCell>
        <mxCell id="VMLcQ7x3kWmT9pxBNX9J-16" value="" style="endArrow=none;html=1;rounded=0;exitX=1;exitY=0.5;exitDx=0;exitDy=0;entryX=0;entryY=0.5;entryDx=0;entryDy=0;" edge="1" parent="1" source="VMLcQ7x3kWmT9pxBNX9J-6" target="VMLcQ7x3kWmT9pxBNX9J-7">
          <mxGeometry width="50" height="50" relative="1" as="geometry">
            <mxPoint x="890" y="30" as="sourcePoint" />
            <mxPoint x="1116" y="30" as="targetPoint" />
          </mxGeometry>
        </mxCell>
        <mxCell id="VMLcQ7x3kWmT9pxBNX9J-18" value="" style="endArrow=classic;html=1;rounded=0;" edge="1" parent="1">
          <mxGeometry width="50" height="50" relative="1" as="geometry">
            <mxPoint x="840" y="39" as="sourcePoint" />
            <mxPoint x="1010" y="39" as="targetPoint" />
          </mxGeometry>
        </mxCell>
        <mxCell id="VMLcQ7x3kWmT9pxBNX9J-19" value="3 : V&lt;span style=&quot;color: rgba(0, 0, 0, 0); font-family: monospace; font-size: 0px; text-align: start; text-wrap-mode: nowrap;&quot;&gt;&lt;span style=&quot;color: rgb(56, 58, 66); font-family: jetbrains, &amp;quot;jetbrains Fallback&amp;quot;, Menlo, Monaco, monospace, monospace; font-size: 14px; white-space-collapse: preserve; background-color: rgb(255, 255, 255);&quot;&gt;alidarSesionActiva&lt;/span&gt;%3CmxGraphModel%3E%3Croot%3E%3CmxCell%20id%3D%220%22%2F%3E%3CmxCell%20id%3D%221%22%20parent%3D%220%22%2F%3E%3CmxCell%20id%3D%222%22%20value%3D%22%22%20style%3D%22endArrow%3Dclassic%3Bhtml%3D1%3Brounded%3D0%3B%22%20edge%3D%221%22%20parent%3D%221%22%3E%3CmxGeometry%20width%3D%2250%22%20height%3D%2250%22%20relative%3D%221%22%20as%3D%22geometry%22%3E%3CmxPoint%20x%3D%22510%22%20y%3D%2240%22%20as%3D%22sourcePoint%22%2F%3E%3CmxPoint%20x%3D%22680%22%20y%3D%2240%22%20as%3D%22targetPoint%22%2F%3E%3C%2FmxGeometry%3E%3C%2FmxCell%3E%3C%2Froot%3E%3C%2FmxGraphModel%3E%3CmxGraphModel%3E%3Croot%3E%3CmxCell%20id%3D%220%22%2F%3E%3CmxCell%20id%3D%221%22%20parent%3D%220%22%2F%3E%3CmxCell%20id%3D%222%22%20value%3D%22%22%20style%3D%22endArrow%3Dclassic%3Bhtml%3D1%3Brounded%3D0%3B%22%20edge%3D%221%22%20parent%3D%221%22%3E%3CmxGeometry%20width%3D%2250%22%20height%3D%2250%22%20relative%3D%221%22%20as%3D%22geometry%22%3E%3CmxPoint%20x%3D%22510%22%20y%3D%2240%22%20as%3D%22sourcePoint%22%2F%3E%3CmxPoint%20x%3D%22680%22%20y%3D%2240%22%20as%3D%22targetPoint%22%2F%3E%3C%2FmxGeometry%3E%3C%2FmxCell%3E%3C%2Froot%3E%3C%2FmxGraphModel%3E3CmxGraphModel%3E%3Croot%3E%3CmxCell%20id%3D%220%22%2F%3E%3CmxCell%20id%3D%221%22%20parent%3D%220%22%2F%3E%3CmxCell%20id%3D%222%22%20value%3D%22%22%20style%3D%22endArrow%3Dclassic%3Bhtml%3D1%3Brounded%3D0%3B%22%20edge%3D%221%22%20parent%3D%221%22%3E%3CmxGeometry%20width%3D%2250%22%20height%3D%2250%22%20relative%3D%221%22%20as%3D%22geometry%22%3E%3CmxPoint%20x%3D%22510%22%20y%3D%2240%22%20as%3D%22sourcePoint%22%2F%3E%3CmxPoint%20x%3D%22680%22%20y%3D%2240%22%20as%3D%22targetPoint%22%2F%3E%3C%2FmxGeometry%3E%3C%2FmxCell%3E%3C%2Froot%3E%3C%2FmxGraphModel%3E%3CmxGraphModel%3E%3Croot%3E%3CmxCell%20id%3D%220%22%2F%3E%3CmxCell%20id%3D%221%22%20parent%3D%220%22%2F%3E%3CmxCell%20id%3D%222%22%20value%3D%22%22%20style%3D%22endArrow%3Dclassic%3Bhtml%3D1%3Brounded%3D0%3B%22%20edge%3D%221%22%20parent%3D%221%22%3E%3CmxGeometry%20width%3D%2250%22%20height%3D%2250%22%20relative%3D%221%22%20as%3D%22geometry%22%3E%3CmxPoint%20x%3D%22510%22%20y%3D%2240%22%20as%3D%22sourcePoint%22%2F%3E%3CmxPoint%20x%3D%22680%22%20y%3D%2240%22%20as%3D%22targetPoint%22%2F%3E%3C%2FmxGeometry%3E%3C%2FmxCell%3E%3C%2Froot%3E%3C%2FmxGraphModel%3E&lt;/span&gt;&lt;span style=&quot;color: rgba(0, 0, 0, 0); font-family: monospace; font-size: 0px; text-align: start; text-wrap-mode: nowrap;&quot;&gt;%3CmxGraphModel%3E%3Croot%3E%3CmxCell%20id%3D%220%22%2F%3E%3CmxCell%20id%3D%221%22%20parent%3D%220%22%2F%3E%3CmxCell%20id%3D%222%22%20value%3D%22%22%20style%3D%22endArrow%3Dclassic%3Bhtml%3D1%3Brounded%3D0%3B%22%20edge%3D%221%22%20parent%3D%221%22%3E%3CmxGeometry%20width%3D%2250%22%20height%3D%2250%22%20relative%3D%221%22%20as%3D%22geometry%22%3E%3CmxPoint%20x%3D%22510%22%20y%3D%2240%22%20as%3D%22sourcePoint%22%2F%3E%3CmxPoint%20x%3D%22680%22%20y%3D%2240%22%20as%3D%22targetPoint%22%2F%3E%3C%2FmxGeometry%3E%3C%2FmxCell%3E%3C%2Froot%3E%3C%2FmxGraphModel%3E&lt;/span&gt;" style="text;html=1;align=center;verticalAlign=middle;whiteSpace=wrap;rounded=0;" vertex="1" parent="1">
          <mxGeometry x="840" y="10" width="170" height="30" as="geometry" />
        </mxCell>
        <mxCell id="VMLcQ7x3kWmT9pxBNX9J-20" value="" style="endArrow=none;html=1;rounded=0;exitX=0.5;exitY=0;exitDx=0;exitDy=0;entryX=0.5;entryY=0;entryDx=0;entryDy=0;" edge="1" parent="1" source="VMLcQ7x3kWmT9pxBNX9J-6" target="VMLcQ7x3kWmT9pxBNX9J-7">
          <mxGeometry width="50" height="50" relative="1" as="geometry">
            <mxPoint x="800" y="-10" as="sourcePoint" />
            <mxPoint x="1026" y="-10" as="targetPoint" />
            <Array as="points">
              <mxPoint x="760" />
              <mxPoint x="1080" />
            </Array>
          </mxGeometry>
        </mxCell>
        <mxCell id="VMLcQ7x3kWmT9pxBNX9J-21" value="4: S&lt;span style=&quot;color: rgb(56, 58, 66); font-family: jetbrains, &amp;quot;jetbrains Fallback&amp;quot;, Menlo, Monaco, monospace, monospace; font-size: 14px; text-align: left; white-space: pre; background-color: rgb(255, 255, 255);&quot;&gt;esionValida&lt;/span&gt;" style="text;html=1;align=center;verticalAlign=middle;whiteSpace=wrap;rounded=0;" vertex="1" parent="1">
          <mxGeometry x="860" y="-50" width="120" height="30" as="geometry" />
        </mxCell>
        <mxCell id="VMLcQ7x3kWmT9pxBNX9J-22" value="" style="endArrow=block;dashed=1;endFill=0;endSize=12;html=1;rounded=0;" edge="1" parent="1">
          <mxGeometry width="160" relative="1" as="geometry">
            <mxPoint x="990" y="-20" as="sourcePoint" />
            <mxPoint x="840" y="-20" as="targetPoint" />
          </mxGeometry>
        </mxCell>
        <mxCell id="VMLcQ7x3kWmT9pxBNX9J-23" value="" style="endArrow=none;html=1;rounded=0;exitX=0.5;exitY=1;exitDx=0;exitDy=0;entryX=0.5;entryY=0;entryDx=0;entryDy=0;" edge="1" parent="1">
          <mxGeometry width="50" height="50" relative="1" as="geometry">
            <mxPoint x="759.5" y="80" as="sourcePoint" />
            <mxPoint x="759.5" y="240" as="targetPoint" />
          </mxGeometry>
        </mxCell>
        <mxCell id="VMLcQ7x3kWmT9pxBNX9J-24" value="" style="endArrow=classic;html=1;rounded=0;" edge="1" parent="1">
          <mxGeometry width="50" height="50" relative="1" as="geometry">
            <mxPoint x="770" y="120" as="sourcePoint" />
            <mxPoint x="770" y="210" as="targetPoint" />
          </mxGeometry>
        </mxCell>
        <mxCell id="VMLcQ7x3kWmT9pxBNX9J-25" value="5: O&lt;span style=&quot;color: rgb(56, 58, 66); font-family: jetbrains, &amp;quot;jetbrains Fallback&amp;quot;, Menlo, Monaco, monospace, monospace; font-size: 14px; text-align: left; white-space: pre; background-color: rgb(255, 255, 255);&quot;&gt;btenerDatosPerfil&lt;/span&gt;" style="text;html=1;align=center;verticalAlign=middle;whiteSpace=wrap;rounded=0;" vertex="1" parent="1">
          <mxGeometry x="770" y="150" width="170" height="30" as="geometry" />
        </mxCell>
        <mxCell id="VMLcQ7x3kWmT9pxBNX9J-27" value="" style="endArrow=none;html=1;rounded=0;exitX=1;exitY=0.5;exitDx=0;exitDy=0;entryX=0;entryY=0.5;entryDx=0;entryDy=0;" edge="1" parent="1" source="VMLcQ7x3kWmT9pxBNX9J-8" target="VMLcQ7x3kWmT9pxBNX9J-5">
          <mxGeometry width="50" height="50" relative="1" as="geometry">
            <mxPoint x="820" y="269.5" as="sourcePoint" />
            <mxPoint x="1020" y="269.5" as="targetPoint" />
          </mxGeometry>
        </mxCell>
        <mxCell id="VMLcQ7x3kWmT9pxBNX9J-28" value="" style="endArrow=classic;html=1;rounded=0;" edge="1" parent="1">
          <mxGeometry width="50" height="50" relative="1" as="geometry">
            <mxPoint x="840" y="260" as="sourcePoint" />
            <mxPoint x="1010" y="260" as="targetPoint" />
          </mxGeometry>
        </mxCell>
        <mxCell id="VMLcQ7x3kWmT9pxBNX9J-29" value="&lt;span style=&quot;color: rgb(56, 58, 66); font-family: jetbrains, &amp;quot;jetbrains Fallback&amp;quot;, Menlo, Monaco, monospace, monospace; font-size: 14px; text-align: left; white-space: pre; background-color: rgb(255, 255, 255);&quot;&gt;6:ConsultarInformacionUsuario&lt;/span&gt;" style="text;html=1;align=center;verticalAlign=middle;whiteSpace=wrap;rounded=0;" vertex="1" parent="1">
          <mxGeometry x="910" y="230" width="60" height="30" as="geometry" />
        </mxCell>
        <mxCell id="VMLcQ7x3kWmT9pxBNX9J-30" value="" style="endArrow=none;html=1;rounded=0;exitX=0.5;exitY=1;exitDx=0;exitDy=0;entryX=0.5;entryY=1;entryDx=0;entryDy=0;" edge="1" parent="1" source="VMLcQ7x3kWmT9pxBNX9J-8" target="VMLcQ7x3kWmT9pxBNX9J-5">
          <mxGeometry width="50" height="50" relative="1" as="geometry">
            <mxPoint x="880" y="400" as="sourcePoint" />
            <mxPoint x="1200" y="400" as="targetPoint" />
            <Array as="points">
              <mxPoint x="760" y="320" />
              <mxPoint x="1110" y="320" />
            </Array>
          </mxGeometry>
        </mxCell>
        <mxCell id="VMLcQ7x3kWmT9pxBNX9J-31" value="" style="endArrow=block;dashed=1;endFill=0;endSize=12;html=1;rounded=0;" edge="1" parent="1">
          <mxGeometry width="160" relative="1" as="geometry">
            <mxPoint x="1010" y="310" as="sourcePoint" />
            <mxPoint x="860" y="310" as="targetPoint" />
          </mxGeometry>
        </mxCell>
        <mxCell id="VMLcQ7x3kWmT9pxBNX9J-32" value="&lt;span style=&quot;color: rgb(56, 58, 66); font-family: jetbrains, &amp;quot;jetbrains Fallback&amp;quot;, Menlo, Monaco, monospace, monospace; font-size: 14px; text-align: left; white-space: pre; background-color: rgb(255, 255, 255);&quot;&gt;7: Datos usuario&lt;/span&gt;" style="text;html=1;align=center;verticalAlign=middle;whiteSpace=wrap;rounded=0;" vertex="1" parent="1">
          <mxGeometry x="890" y="280" width="60" height="30" as="geometry" />
        </mxCell>
        <mxCell id="VMLcQ7x3kWmT9pxBNX9J-33" value="" style="endArrow=none;html=1;rounded=0;entryX=0.5;entryY=1;entryDx=0;entryDy=0;exitX=0;exitY=0.5;exitDx=0;exitDy=0;" edge="1" parent="1" source="VMLcQ7x3kWmT9pxBNX9J-8" target="VMLcQ7x3kWmT9pxBNX9J-8">
          <mxGeometry width="50" height="50" relative="1" as="geometry">
            <mxPoint x="660" y="260" as="sourcePoint" />
            <mxPoint x="776" y="320" as="targetPoint" />
            <Array as="points">
              <mxPoint x="660" y="270" />
              <mxPoint x="660" y="320" />
              <mxPoint x="760" y="320" />
            </Array>
          </mxGeometry>
        </mxCell>
        <mxCell id="VMLcQ7x3kWmT9pxBNX9J-34" value="" style="endArrow=classic;html=1;rounded=0;" edge="1" parent="1">
          <mxGeometry width="50" height="50" relative="1" as="geometry">
            <mxPoint x="710" y="330" as="sourcePoint" />
            <mxPoint x="650" y="280" as="targetPoint" />
            <Array as="points">
              <mxPoint x="650" y="330" />
            </Array>
          </mxGeometry>
        </mxCell>
        <mxCell id="VMLcQ7x3kWmT9pxBNX9J-35" value="&lt;span style=&quot;color: rgb(56, 58, 66); font-family: jetbrains, &amp;quot;jetbrains Fallback&amp;quot;, Menlo, Monaco, monospace, monospace; font-size: 14px; text-align: left; white-space: pre; background-color: rgb(255, 255, 255);&quot;&gt;8:FormatearDatos&lt;/span&gt;" style="text;html=1;align=center;verticalAlign=middle;whiteSpace=wrap;rounded=0;" vertex="1" parent="1">
          <mxGeometry x="590" y="330" width="60" height="30" as="geometry" />
        </mxCell>
        <mxCell id="VMLcQ7x3kWmT9pxBNX9J-37" value="" style="endArrow=none;html=1;rounded=0;exitX=0.5;exitY=1;exitDx=0;exitDy=0;entryX=0.5;entryY=0;entryDx=0;entryDy=0;" edge="1" parent="1">
          <mxGeometry width="50" height="50" relative="1" as="geometry">
            <mxPoint x="730" y="80" as="sourcePoint" />
            <mxPoint x="730" y="240" as="targetPoint" />
          </mxGeometry>
        </mxCell>
        <mxCell id="VMLcQ7x3kWmT9pxBNX9J-38" value="" style="endArrow=block;dashed=1;endFill=0;endSize=12;html=1;rounded=0;" edge="1" parent="1">
          <mxGeometry width="160" relative="1" as="geometry">
            <mxPoint x="720" y="230" as="sourcePoint" />
            <mxPoint x="720" y="90" as="targetPoint" />
          </mxGeometry>
        </mxCell>
        <mxCell id="VMLcQ7x3kWmT9pxBNX9J-39" value="&lt;span style=&quot;color: rgb(56, 58, 66); font-family: jetbrains, &amp;quot;jetbrains Fallback&amp;quot;, Menlo, Monaco, monospace, monospace; font-size: 14px; text-align: left; white-space: pre; background-color: rgb(255, 255, 255);&quot;&gt;9:Perfil formateado&lt;/span&gt;" style="text;html=1;align=center;verticalAlign=middle;whiteSpace=wrap;rounded=0;" vertex="1" parent="1">
          <mxGeometry x="610" y="150" width="60" height="30" as="geometry" />
        </mxCell>
        <mxCell id="VMLcQ7x3kWmT9pxBNX9J-40" value="" style="endArrow=none;html=1;rounded=0;exitX=1;exitY=0.5;exitDx=0;exitDy=0;entryX=0;entryY=0.5;entryDx=0;entryDy=0;" edge="1" parent="1">
          <mxGeometry width="50" height="50" relative="1" as="geometry">
            <mxPoint x="474" y="59.5" as="sourcePoint" />
            <mxPoint x="700" y="59.5" as="targetPoint" />
          </mxGeometry>
        </mxCell>
        <mxCell id="VMLcQ7x3kWmT9pxBNX9J-41" value="" style="endArrow=block;dashed=1;endFill=0;endSize=12;html=1;rounded=0;" edge="1" parent="1">
          <mxGeometry width="160" relative="1" as="geometry">
            <mxPoint x="670" y="70" as="sourcePoint" />
            <mxPoint x="520" y="70" as="targetPoint" />
          </mxGeometry>
        </mxCell>
        <mxCell id="VMLcQ7x3kWmT9pxBNX9J-42" value="&lt;span style=&quot;color: rgb(56, 58, 66); font-family: jetbrains, &amp;quot;jetbrains Fallback&amp;quot;, Menlo, Monaco, monospace, monospace; font-size: 14px; text-align: left; white-space: pre; background-color: rgb(255, 255, 255);&quot;&gt;10:MostrarPerfil&lt;/span&gt;" style="text;html=1;align=center;verticalAlign=middle;whiteSpace=wrap;rounded=0;" vertex="1" parent="1">
          <mxGeometry x="570" y="70" width="60" height="30" as="geometry" />
        </mxCell>
        <mxCell id="VMLcQ7x3kWmT9pxBNX9J-43" value="" style="endArrow=none;html=1;rounded=0;exitX=1;exitY=0.3333333333333333;exitDx=0;exitDy=0;exitPerimeter=0;entryX=0;entryY=0.5;entryDx=0;entryDy=0;" edge="1" parent="1">
          <mxGeometry width="50" height="50" relative="1" as="geometry">
            <mxPoint x="100" y="59.5" as="sourcePoint" />
            <mxPoint x="354" y="59.5" as="targetPoint" />
          </mxGeometry>
        </mxCell>
        <mxCell id="VMLcQ7x3kWmT9pxBNX9J-44" value="" style="endArrow=block;dashed=1;endFill=0;endSize=12;html=1;rounded=0;" edge="1" parent="1">
          <mxGeometry width="160" relative="1" as="geometry">
            <mxPoint x="295" y="70" as="sourcePoint" />
            <mxPoint x="145" y="70" as="targetPoint" />
          </mxGeometry>
        </mxCell>
        <mxCell id="VMLcQ7x3kWmT9pxBNX9J-45" value="&lt;span style=&quot;color: rgb(56, 58, 66); font-family: jetbrains, &amp;quot;jetbrains Fallback&amp;quot;, Menlo, Monaco, monospace, monospace; font-size: 14px; text-align: left; white-space: pre; background-color: rgb(255, 255, 255);&quot;&gt; 11: Presentar perfil&lt;/span&gt;" style="text;html=1;align=center;verticalAlign=middle;whiteSpace=wrap;rounded=0;" vertex="1" parent="1">
          <mxGeometry x="200" y="80" width="60" height="30" as="geometry" />
        </mxCell>
      </root>
    </mxGraphModel>
  </diagram>
</mxfile>
